<svg xmlns="http://www.w3.org/2000/svg" xmlns:xlink="http://www.w3.org/1999/xlink" viewBox="0 0 295.96 268.28"><defs><style>.cls-1{isolation:isolate;}.cls-2{fill:url(#Gradiente_sem_nome_62);}.cls-3{fill:url(#Gradiente_sem_nome_61);}.cls-4{fill:url(#Gradiente_sem_nome_61-2);}.cls-39,.cls-5,.cls-6{fill:none;}.cls-5,.cls-6{stroke:#19425e;stroke-width:0.5px;}.cls-12,.cls-5,.cls-6{stroke-miterlimit:10;}.cls-6{stroke-dasharray:2.98 2.98;}.cls-7{fill:url(#Gradiente_sem_nome_27);}.cls-8{fill:url(#Gradiente_sem_nome_27-2);}.cls-9{fill:url(#Gradiente_sem_nome_31);}.cls-10{fill:url(#Gradiente_sem_nome_32);}.cls-11{fill:url(#Gradiente_sem_nome_7);}.cls-12{stroke:#282723;stroke-width:0.25px;fill:url(#Gradiente_sem_nome_4);}.cls-13{fill:url(#linear-gradient);}.cls-14{fill:#282723;}.cls-15{fill:url(#Gradiente_sem_nome_7-2);}.cls-16{fill:url(#Gradiente_sem_nome_7-3);}.cls-17{fill:url(#Gradiente_sem_nome_7-4);}.cls-18{fill:url(#Gradiente_sem_nome_11);}.cls-19{fill:url(#Gradiente_sem_nome_11-2);}.cls-20{fill:#34adc7;}.cls-21,.cls-50{mix-blend-mode:multiply;}.cls-22{fill:#d2dbea;mix-blend-mode:soft-light;}.cls-23{fill:url(#Gradiente_sem_nome_20);}.cls-24{fill:url(#Gradiente_sem_nome_20-2);}.cls-25{fill:url(#Gradiente_sem_nome_45);}.cls-26{fill:#19425e;}.cls-27{fill:url(#Gradiente_sem_nome_45-2);}.cls-28{fill:url(#Gradiente_sem_nome_35);}.cls-29{fill:url(#Gradiente_sem_nome_40);}.cls-30{fill:url(#Gradiente_sem_nome_35-2);}.cls-31{fill:#955043;}.cls-32{fill:url(#Gradiente_sem_nome_35-3);}.cls-33{fill:url(#Gradiente_sem_nome_39);}.cls-34{fill:#b52b09;}.cls-35{fill:url(#Gradiente_sem_nome_40-2);}.cls-36{fill:url(#Gradiente_sem_nome_35-4);}.cls-37{fill:url(#linear-gradient-2);}.cls-38{fill:#fff;}.cls-40{fill:url(#Gradiente_sem_nome_35-5);}.cls-41{fill:url(#Gradiente_sem_nome_35-6);}.cls-42{fill:url(#Gradiente_sem_nome_35-7);}.cls-43{fill:url(#Gradiente_sem_nome_49);}.cls-44{fill:url(#Gradiente_sem_nome_35-8);}.cls-45{fill:url(#Gradiente_sem_nome_35-9);}.cls-46{fill:url(#Gradiente_sem_nome_35-10);}.cls-47{fill:url(#Gradiente_sem_nome_49-2);}.cls-48{fill:url(#Gradiente_sem_nome_49-3);}.cls-49{fill:url(#Gradiente_sem_nome_35-11);}.cls-50{fill:#fad553;}</style><linearGradient id="Gradiente_sem_nome_62" x1="187.39" y1="121.59" x2="187.39" y2="0.66" gradientUnits="userSpaceOnUse"><stop offset="0.19" stop-color="#d2dbea" stop-opacity="0"/><stop offset="0.26" stop-color="#d2dbea" stop-opacity="0.04"/><stop offset="0.38" stop-color="#d2dbea" stop-opacity="0.15"/><stop offset="0.54" stop-color="#d2dbea" stop-opacity="0.33"/><stop offset="0.73" stop-color="#d2dbea" stop-opacity="0.58"/><stop offset="0.94" stop-color="#d2dbea" stop-opacity="0.9"/><stop offset="1" stop-color="#d2dbea"/></linearGradient><linearGradient id="Gradiente_sem_nome_61" x1="108.19" y1="234.38" x2="108.19" y2="150.92" gradientUnits="userSpaceOnUse"><stop offset="0" stop-color="#d2dbea" stop-opacity="0"/><stop offset="0.09" stop-color="#d2dbea" stop-opacity="0.04"/><stop offset="0.24" stop-color="#d2dbea" stop-opacity="0.15"/><stop offset="0.44" stop-color="#d2dbea" stop-opacity="0.33"/><stop offset="0.67" stop-color="#d2dbea" stop-opacity="0.58"/><stop offset="0.92" stop-color="#d2dbea" stop-opacity="0.9"/><stop offset="1" stop-color="#d2dbea"/></linearGradient><linearGradient id="Gradiente_sem_nome_61-2" x1="248.74" y1="219.68" x2="248.74" y2="131.49" xlink:href="#Gradiente_sem_nome_61"/><linearGradient id="Gradiente_sem_nome_27" x1="177.91" y1="26.65" x2="177.91" y2="238.93" gradientTransform="translate(-35.36 97.15) rotate(-22.42)" gradientUnits="userSpaceOnUse"><stop offset="0" stop-color="#8ed0ff"/><stop offset="0.18" stop-color="#84ccf9"/><stop offset="0.49" stop-color="#6bc2e9"/><stop offset="0.88" stop-color="#41b2cf"/><stop offset="0.99" stop-color="#34adc7"/></linearGradient><linearGradient id="Gradiente_sem_nome_27-2" x1="177.91" y1="186.17" x2="177.91" y2="51.73" xlink:href="#Gradiente_sem_nome_27"/><linearGradient id="Gradiente_sem_nome_31" x1="134.69" y1="-43.44" x2="134.69" y2="87.99" gradientTransform="translate(-34.46 28.7) rotate(-1.48)" gradientUnits="userSpaceOnUse"><stop offset="0" stop-color="#fff"/><stop offset="0.31" stop-color="#f5f7fb"/><stop offset="0.83" stop-color="#dce3ef"/><stop offset="0.99" stop-color="#d2dbea"/></linearGradient><linearGradient id="Gradiente_sem_nome_32" x1="134.69" y1="112.18" x2="134.69" y2="-14.79" gradientTransform="translate(-34.46 28.7) rotate(-1.48)" gradientUnits="userSpaceOnUse"><stop offset="0" stop-color="#fff"/><stop offset="0.3" stop-color="#f5f7fb"/><stop offset="0.8" stop-color="#dce3ef"/><stop offset="0.96" stop-color="#d2dbea"/></linearGradient><linearGradient id="Gradiente_sem_nome_7" x1="199.76" y1="255.03" x2="199.76" y2="-198.28" gradientUnits="userSpaceOnUse"><stop offset="0" stop-color="#19425e"/><stop offset="0.99" stop-color="#34adc7"/></linearGradient><linearGradient id="Gradiente_sem_nome_4" x1="199.76" y1="16.37" x2="199.76" y2="274.36" gradientUnits="userSpaceOnUse"><stop offset="0" stop-color="#19425e"/><stop offset="1" stop-color="#282723"/></linearGradient><linearGradient id="linear-gradient" x1="199.76" y1="430.93" x2="199.76" y2="-121.62" gradientUnits="userSpaceOnUse"><stop offset="0" stop-color="#f2709c"/><stop offset="0.99" stop-color="#ff9472"/></linearGradient><linearGradient id="Gradiente_sem_nome_7-2" x1="154.16" y1="95.41" x2="111.2" y2="95.41" xlink:href="#Gradiente_sem_nome_7"/><linearGradient id="Gradiente_sem_nome_7-3" x1="154.16" y1="112.22" x2="111.2" y2="112.22" xlink:href="#Gradiente_sem_nome_7"/><linearGradient id="Gradiente_sem_nome_7-4" x1="645.65" y1="69.68" x2="602.69" y2="69.68" gradientTransform="translate(-383.93 34.13)" xlink:href="#Gradiente_sem_nome_7"/><linearGradient id="Gradiente_sem_nome_11" x1="313.23" y1="97.38" x2="313.23" y2="60.35" gradientTransform="translate(512.99 179.75) rotate(180)" gradientUnits="userSpaceOnUse"><stop offset="0" stop-color="#d2dbea"/><stop offset="0.99" stop-color="#fff"/></linearGradient><linearGradient id="Gradiente_sem_nome_11-2" x1="199.76" y1="115.76" x2="199.76" y2="83.68" gradientTransform="matrix(1, 0, 0, 1, 0, 0)" xlink:href="#Gradiente_sem_nome_11"/><linearGradient id="Gradiente_sem_nome_20" x1="164.31" y1="106.54" x2="221.76" y2="163.99" gradientUnits="userSpaceOnUse"><stop offset="0.56" stop-color="#d2dbea" stop-opacity="0"/><stop offset="0.68" stop-color="#d2dbea" stop-opacity="0.01"/><stop offset="0.74" stop-color="#d2dbea" stop-opacity="0.04"/><stop offset="0.79" stop-color="#d2dbea" stop-opacity="0.1"/><stop offset="0.83" stop-color="#d2dbea" stop-opacity="0.18"/><stop offset="0.87" stop-color="#d2dbea" stop-opacity="0.28"/><stop offset="0.9" stop-color="#d2dbea" stop-opacity="0.41"/><stop offset="0.93" stop-color="#d2dbea" stop-opacity="0.57"/><stop offset="0.96" stop-color="#d2dbea" stop-opacity="0.74"/><stop offset="0.98" stop-color="#d2dbea" stop-opacity="0.94"/><stop offset="0.99" stop-color="#d2dbea"/></linearGradient><linearGradient id="Gradiente_sem_nome_20-2" x1="164.99" y1="86.15" x2="219.19" y2="140.36" xlink:href="#Gradiente_sem_nome_20"/><linearGradient id="Gradiente_sem_nome_45" x1="97.46" y1="258.41" x2="38.37" y2="203.36" gradientUnits="userSpaceOnUse"><stop offset="0" stop-color="#34adc7"/><stop offset="0.16" stop-color="#32a3be"/><stop offset="0.44" stop-color="#2b8aa4"/><stop offset="0.78" stop-color="#21607b"/><stop offset="1" stop-color="#19425e"/></linearGradient><linearGradient id="Gradiente_sem_nome_45-2" x1="-31.89" y1="278.59" x2="45.42" y2="184.68" xlink:href="#Gradiente_sem_nome_45"/><linearGradient id="Gradiente_sem_nome_35" x1="98.61" y1="111.08" x2="98.61" y2="194.25" gradientUnits="userSpaceOnUse"><stop offset="0" stop-color="#fcc4ad"/><stop offset="0.15" stop-color="#f3baa4"/><stop offset="0.39" stop-color="#dda18d"/><stop offset="0.71" stop-color="#b77766"/><stop offset="0.96" stop-color="#955043"/></linearGradient><linearGradient id="Gradiente_sem_nome_40" x1="112.1" y1="78.63" x2="67.21" y2="162.13" gradientUnits="userSpaceOnUse"><stop offset="0" stop-color="#fad553"/><stop offset="0.15" stop-color="#f2c24b"/><stop offset="0.46" stop-color="#de9035"/><stop offset="0.89" stop-color="#be4012"/><stop offset="1" stop-color="#b52b09"/></linearGradient><linearGradient id="Gradiente_sem_nome_35-2" x1="84.9" y1="141.72" x2="59.95" y2="141.72" xlink:href="#Gradiente_sem_nome_35"/><linearGradient id="Gradiente_sem_nome_35-3" x1="79.97" y1="138.63" x2="61.16" y2="137.45" xlink:href="#Gradiente_sem_nome_35"/><linearGradient id="Gradiente_sem_nome_39" x1="2.22" y1="76.35" x2="59.72" y2="178.24" gradientUnits="userSpaceOnUse"><stop offset="0" stop-color="#fad553"/><stop offset="0.12" stop-color="#f6cb4f"/><stop offset="0.31" stop-color="#ecb244"/><stop offset="0.55" stop-color="#da8731"/><stop offset="0.84" stop-color="#c34e18"/><stop offset="1" stop-color="#b52b09"/></linearGradient><linearGradient id="Gradiente_sem_nome_40-2" x1="109.59" y1="130.57" x2="55.68" y2="175.5" gradientTransform="translate(5.33 -5.5) rotate(1.88)" xlink:href="#Gradiente_sem_nome_40"/><linearGradient id="Gradiente_sem_nome_35-4" x1="103.84" y1="143.07" x2="88.45" y2="199.19" gradientTransform="translate(5.33 -5.5) rotate(1.88)" xlink:href="#Gradiente_sem_nome_35"/><linearGradient id="linear-gradient-2" x1="112.18" y1="244.13" x2="160.49" y2="244.13" gradientUnits="userSpaceOnUse"><stop offset="0.04" stop-color="#f2709c"/><stop offset="0.32" stop-color="#f57991"/><stop offset="0.8" stop-color="#fe9274"/><stop offset="0.83" stop-color="#ff9472"/><stop offset="0.92" stop-color="#fe9274"/><stop offset="0.95" stop-color="#fc8d7b"/><stop offset="0.98" stop-color="#f98286"/><stop offset="1" stop-color="#f47497"/><stop offset="1" stop-color="#f2709c"/></linearGradient><linearGradient id="Gradiente_sem_nome_35-5" x1="196.06" y1="242.24" x2="270.65" y2="221.58" xlink:href="#Gradiente_sem_nome_35"/><linearGradient id="Gradiente_sem_nome_35-6" x1="191.86" y1="244" x2="247.39" y2="217.9" xlink:href="#Gradiente_sem_nome_35"/><linearGradient id="Gradiente_sem_nome_35-7" x1="202.8" y1="118.06" x2="229.5" y2="155.63" gradientTransform="matrix(0.94, 0.33, -0.3, 0.87, 48.97, -84.93)" xlink:href="#Gradiente_sem_nome_35"/><linearGradient id="Gradiente_sem_nome_49" x1="194.34" y1="123.9" x2="284.23" y2="170.37" gradientTransform="matrix(0.99, 0.02, 0.02, 0.93, -0.64, 2.28)" gradientUnits="userSpaceOnUse"><stop offset="0" stop-color="#fad553"/><stop offset="0.14" stop-color="#f3cb52"/><stop offset="0.37" stop-color="#dfb24f"/><stop offset="0.67" stop-color="#bf874a"/><stop offset="1" stop-color="#955043"/></linearGradient><linearGradient id="Gradiente_sem_nome_35-8" x1="214.7" y1="126.6" x2="225.36" y2="135.01" xlink:href="#Gradiente_sem_nome_35"/><linearGradient id="Gradiente_sem_nome_35-9" x1="216.06" y1="126.28" x2="225.69" y2="135.19" xlink:href="#Gradiente_sem_nome_35"/><linearGradient id="Gradiente_sem_nome_35-10" x1="211.79" y1="136.61" x2="237.15" y2="136.61" xlink:href="#Gradiente_sem_nome_35"/><linearGradient id="Gradiente_sem_nome_49-2" x1="169.91" y1="152.8" x2="281.97" y2="210.73" gradientTransform="matrix(1, 0, 0, 1, 0, 0)" xlink:href="#Gradiente_sem_nome_49"/><linearGradient id="Gradiente_sem_nome_49-3" x1="254.15" y1="194.66" x2="202.52" y2="118.51" gradientTransform="matrix(1, 0, 0, 1, 0, 0)" xlink:href="#Gradiente_sem_nome_49"/><linearGradient id="Gradiente_sem_nome_35-11" x1="262.64" y1="182.42" x2="219.34" y2="213.11" xlink:href="#Gradiente_sem_nome_35"/></defs><title>illustration</title><g class="cls-1"><g id="OBJECTS"><path class="cls-2" d="M147.38,35.54c2.65-8.84,12-13.9,20.78-14.08s17.2,3.46,25.31,7c4-13.72,15.39-24.74,28.7-27.69S250.14,3.1,259,14s11.6,26.93,6.85,40.37c-1.17,3.31-2.77,6.49-3.42,10s-.16,7.46,2.28,9.88c3.31,3.27,8.62,2.45,12.89.85s8.77-3.8,13.16-2.59,7.2,8.13,3.43,10.8c-1.39,1-3.19,1.05-4.88,1.06l-26.23.27c-7.46.07-15.24.08-22-3.35-5.47-2.8-9.84-7.7-15.49-10.07-9.56-4-20.26,0-30,3.4A247.65,247.65,0,0,1,96.33,87.61c-4.31-.32-8.81-.81-12.46-3.25S77.71,76.94,79.3,72.7C81,68.18,86.5,66.48,91,67.48s8.35,4,12.34,6.41,8.65,4.43,13.12,3.25c4.31-1.13,7.45-4.94,11.19-7.46,4.46-3,9.66-4,14.89-4.05,3,0,12.38,2.75,14.22-1.39,1.56-3.48-5.45-8.82-7.15-12.09C147,47.13,145.72,41.12,147.38,35.54Z"/><path class="cls-3" d="M80.51,176.89c1.42-5.22,1.08-8-.3-9.69s-3.63-2.37-6.34-3.42a8.94,8.94,0,0,1-3.51-2.57,9.47,9.47,0,0,1-2-4c-.64-3,.3-6.59,4.16-9.7s8-1.79,11.54.9A39.29,39.29,0,0,1,88.88,153c1.4,1.61,2.61,3.12,3.58,4.11,2,2,4.41,1.14,7.68.51s7.33-1,12.11,2.26a13.77,13.77,0,0,1,5,5.7A17.26,17.26,0,0,1,119,172.2a52.67,52.67,0,0,1,0,6.54,40.24,40.24,0,0,0-.11,5.74c.63,6.75,6.63,10.78,15.18,12.68,4.27.94,6.47,3.1,7.49,5.74s.65,5.89-.07,9.09c-1.57,6.47-1.65,9.79,4.42,15.16a7.25,7.25,0,0,1,2.37,5.3A13,13,0,0,1,146.7,239a19.35,19.35,0,0,1-11.54,9.7c-5.12,1.52-11.57,1.1-17.5-.78s-11.53-5.16-15.16-10a17.37,17.37,0,0,1-3.71-9.77,46.89,46.89,0,0,1,.76-10,43.37,43.37,0,0,0,.65-9.74A15,15,0,0,0,99.06,204,11.28,11.28,0,0,0,96.25,200a45.4,45.4,0,0,0-3.81-3.11c-1.27-.89-2.52-1.66-3.68-2.37l-3.27-2a22,22,0,0,1-2.75-1.9,8.61,8.61,0,0,1-3.13-5C79.16,183.56,79.48,180.74,80.51,176.89Z"/><path class="cls-4" d="M252.28,137.93c5.87-.71,8.48-2,10-3.86a8.76,8.76,0,0,0,1.45-3.38c.16-.64.28-1.33.43-2.05s.33-1.45.53-2.23A10.92,10.92,0,0,1,267,122a9.8,9.8,0,0,1,4.2-2.83c3.22-1.11,7-.36,10.35,3.56a8.42,8.42,0,0,1,2.28,5.92,13.35,13.35,0,0,1-1.81,5.71,36.22,36.22,0,0,1-3.51,5.21c-1.16,1.62-2.27,3.05-3,4.16-1.4,2.2.35,4.43,2.11,7.24s3.62,6.24,3.1,11.08a11.48,11.48,0,0,1-.85,3.18,9.21,9.21,0,0,1-1.49,2.51,17,17,0,0,1-4.57,3.56c-1.71,1-3.6,1.79-5.39,2.6a25.37,25.37,0,0,0-4.63,2.61c-5.1,3.84-3.85,11.06,1.47,17.42,2.65,3.19,3.22,5.64,2.35,7.75s-2.84,3.92-5.36,5.67c-4.83,3.5-6.83,6.29-3.55,12.72a5.52,5.52,0,0,1,.09,4.87,13.65,13.65,0,0,1-3.89,4.66A24.68,24.68,0,0,1,240.4,235a26.09,26.09,0,0,1-17-6.77,29.1,29.1,0,0,1-9.72-19.41,24.54,24.54,0,0,1,2.9-13.66c2-3.8,4.89-6.86,7.69-9.69,1.38-1.42,2.88-2.74,4.25-4.09a41.23,41.23,0,0,0,3.78-4.11,20.94,20.94,0,0,0,3-4.53,17.44,17.44,0,0,0,1-2.6,21.94,21.94,0,0,0,.66-2.87c.3-2,.47-3.95.58-5.79s.27-3.54.36-5.17.17-3.19.34-4.64a29.72,29.72,0,0,1,.76-4,14.57,14.57,0,0,1,1.4-3.47,10.46,10.46,0,0,1,2.5-2.8C245,139.69,247.86,138.44,252.28,137.93Z"/><path class="cls-5" d="M271.78,129.15c.3-.39.59-.8.88-1.21"/><path class="cls-6" d="M274.26,125.43c9.17-15.64,9.42-40.34-11.35-54.18C240.55,56.36,214.12,57.88,191,30.87c-2.89-3.38-5.48-7.12-6-11.6-.74-5.86,4-11.8,8.19-8.38,4.73,3.83,2.09,15.06-8.9,23.41a69,69,0,0,1-42.91,13.93c-15.76-.33-31.19-6.11-46.93-5.31C69.22,44.2,46,64.33,40.4,89.78c-3.26,14.79-.42,30.62,6.89,43.74"/><path class="cls-5" d="M48,134.82c.25.43.51.86.77,1.28"/><path class="cls-7" d="M226.28,103.28l-8.2,3.39a4.79,4.79,0,0,1-5.34-1.22c-.83-.9-1.7-1.76-2.59-2.59a4.8,4.8,0,0,1-1.2-5.35l3.41-8.19a4.75,4.75,0,0,0-2.56-6.21l-18.66-7.76a4.76,4.76,0,0,0-6.21,2.57l-3.4,8.19A4.82,4.82,0,0,1,176.89,89c-1.22,0-2.44,0-3.67,0a4.79,4.79,0,0,1-4.62-2.93l-3.38-8.2A4.75,4.75,0,0,0,159,75.31L140.34,83a4.75,4.75,0,0,0-2.58,6.21l3.38,8.2a4.79,4.79,0,0,1-1.21,5.34c-.9.83-1.77,1.7-2.6,2.59a4.79,4.79,0,0,1-5.34,1.2l-8.19-3.41a4.76,4.76,0,0,0-6.22,2.56l-7.75,18.66a4.75,4.75,0,0,0,2.56,6.21l8.19,3.4a4.81,4.81,0,0,1,2.92,4.64c0,1.22,0,2.44,0,3.67a4.8,4.8,0,0,1-2.94,4.62l-8.2,3.38a4.76,4.76,0,0,0-2.58,6.21l7.71,18.67a4.75,4.75,0,0,0,6.2,2.58l8.2-3.38a4.78,4.78,0,0,1,5.34,1.21c.84.9,1.7,1.77,2.59,2.6a4.79,4.79,0,0,1,1.2,5.34l-3.41,8.19a4.76,4.76,0,0,0,2.57,6.22l18.65,7.75a4.75,4.75,0,0,0,6.21-2.56l3.41-8.19a4.78,4.78,0,0,1,4.63-2.92c1.22.05,2.44.05,3.67,0a4.78,4.78,0,0,1,4.62,2.94l3.39,8.2a4.75,4.75,0,0,0,6.2,2.58L209.64,198a4.75,4.75,0,0,0,2.58-6.2l-3.39-8.2a4.79,4.79,0,0,1,1.22-5.34c.9-.84,1.76-1.7,2.59-2.59a4.8,4.8,0,0,1,5.35-1.2l8.19,3.41a4.76,4.76,0,0,0,6.21-2.57l7.76-18.65a4.76,4.76,0,0,0-2.57-6.21l-8.19-3.41a4.8,4.8,0,0,1-2.92-4.63c.05-1.22.05-2.44,0-3.67a4.77,4.77,0,0,1,2.93-4.62l8.2-3.39a4.75,4.75,0,0,0,2.58-6.2l-7.7-18.68A4.76,4.76,0,0,0,226.28,103.28ZM182.86,159.6a20.65,20.65,0,1,1,11.21-27A20.65,20.65,0,0,1,182.86,159.6Z"/><path class="cls-8" d="M156.91,96.69a47.4,47.4,0,1,0,61.9,25.74A47.4,47.4,0,0,0,156.91,96.69Zm28.3,68.59a26.8,26.8,0,1,1,14.55-35A26.79,26.79,0,0,1,185.21,165.28Z"/><path class="cls-9" d="M139.2,57.67l-5.49.14a3,3,0,0,1-2.82-1.88c-.28-.71-.59-1.4-.92-2.08a3,3,0,0,1,.49-3.35l3.78-4a2.94,2.94,0,0,0-.11-4.16l-9.07-8.61a2.94,2.94,0,0,0-4.16.11l-3.78,4a3,3,0,0,1-3.33.66c-.69-.29-1.4-.56-2.12-.81a3,3,0,0,1-2-2.72l-.14-5.49a3,3,0,0,0-3-2.86L94,26.93a2.94,2.94,0,0,0-2.87,3l.14,5.49a3,3,0,0,1-1.88,2.82c-.7.28-1.4.59-2.08.92A3,3,0,0,1,84,38.69l-4-3.78a2.94,2.94,0,0,0-4.16.11l-8.62,9.07a2.94,2.94,0,0,0,.11,4.15l4,3.79A3,3,0,0,1,72,55.35c-.3.7-.57,1.4-.82,2.12a3,3,0,0,1-2.71,2l-5.5.14a2.94,2.94,0,0,0-2.86,3l.32,12.5a3,3,0,0,0,3,2.87l5.49-.15a3,3,0,0,1,2.82,1.89c.28.7.59,1.39.92,2.07a3,3,0,0,1-.49,3.36l-3.78,4a2.94,2.94,0,0,0,.11,4.16L77.54,102a2.94,2.94,0,0,0,4.16-.11l3.78-4a3,3,0,0,1,3.33-.66c.69.29,1.4.57,2.12.81a3,3,0,0,1,2,2.72l.14,5.49a3,3,0,0,0,3,2.87l12.5-.33a2.94,2.94,0,0,0,2.87-3l-.14-5.5a3,3,0,0,1,1.88-2.81c.7-.29,1.4-.6,2.08-.93a3,3,0,0,1,3.35.49l4,3.78a2.94,2.94,0,0,0,4.16-.1l8.61-9.07a2.94,2.94,0,0,0-.1-4.16l-4-3.78a3,3,0,0,1-.66-3.33c.3-.69.57-1.4.82-2.12a3,3,0,0,1,2.71-2l5.5-.14a2.94,2.94,0,0,0,2.86-3l-.32-12.51A3,3,0,0,0,139.2,57.67Zm-37.57,23a12.78,12.78,0,1,1,12.45-13.1A12.77,12.77,0,0,1,101.63,80.62Z"/><path class="cls-10" d="M100.54,38.51a29.35,29.35,0,1,0,30.1,28.58A29.34,29.34,0,0,0,100.54,38.51Zm1.19,45.92a16.59,16.59,0,1,1,16.16-17A16.59,16.59,0,0,1,101.73,84.43Z"/><rect class="cls-11" x="145.6" y="42.09" width="108.31" height="216.65" rx="15.79"/><rect class="cls-12" x="148.36" y="44.85" width="102.8" height="211.14" rx="13.03"/><path class="cls-13" d="M226.16,50.75h0a5.91,5.91,0,0,1-5.91,5.91h-41a5.92,5.92,0,0,1-5.92-5.91h0a1.55,1.55,0,0,0-1.55-1.56H161.46a8.53,8.53,0,0,0-8.52,8.52V243.13a8.53,8.53,0,0,0,8.52,8.52h76.6a8.53,8.53,0,0,0,8.52-8.52V57.71a8.53,8.53,0,0,0-8.52-8.52H227.72A1.56,1.56,0,0,0,226.16,50.75Z"/><rect class="cls-14" x="145.6" y="57.88" width="2.76" height="0.83"/><rect class="cls-14" x="145.6" y="242.13" width="2.76" height="0.83"/><rect class="cls-14" x="251.16" y="57.88" width="2.76" height="0.83"/><rect class="cls-14" x="251.16" y="242.13" width="2.76" height="0.83"/><path class="cls-14" d="M206.92,52H192.6a1,1,0,0,1-1-1h0a1,1,0,0,1,1-1h14.32a1,1,0,0,1,1,1h0A1,1,0,0,1,206.92,52Z"/><path class="cls-14" d="M214.12,50.92a1,1,0,1,1-1-1A1,1,0,0,1,214.12,50.92Z"/><path class="cls-15" d="M145.41,88h.6a.62.62,0,0,1,.62.62v13.57a.62.62,0,0,1-.62.62h-.6a.27.27,0,0,1-.27-.27V88.27A.27.27,0,0,1,145.41,88Z"/><path class="cls-16" d="M145.41,104.81h.6a.62.62,0,0,1,.62.62V119a.62.62,0,0,1-.62.62h-.6a.27.27,0,0,1-.27-.27V105.09A.27.27,0,0,1,145.41,104.81Z"/><path class="cls-17" d="M253,88h.6a.62.62,0,0,1,.62.62V119a.62.62,0,0,1-.62.62H253a.27.27,0,0,1-.27-.27V88.27A.27.27,0,0,1,253,88Z" transform="translate(506.89 207.63) rotate(180)"/><circle class="cls-18" cx="199.76" cy="100.26" r="18.37"/><circle class="cls-19" cx="199.76" cy="100.26" r="15.92"/><path class="cls-20" d="M205.88,97.71c0,3.83-2.74,6.94-6.12,6.94s-6.12-3.11-6.12-6.94,2.74-6.93,6.12-6.93S205.88,93.88,205.88,97.71Z"/><path class="cls-20" d="M199.76,114.3a14,14,0,0,0,11.47-6,10.6,10.6,0,0,0-5.55-4.91.74.74,0,0,0-.84.2,6.68,6.68,0,0,1-10.16,0,.74.74,0,0,0-.84-.2,10.6,10.6,0,0,0-5.55,4.91A14,14,0,0,0,199.76,114.3Z"/><g class="cls-21"><rect class="cls-20" x="179.44" y="125.53" width="40.63" height="6.27"/><polygon class="cls-20" points="201.71 137.09 199.76 139.04 197.81 137.09 195.96 137.09 199.76 140.89 203.56 137.09 201.71 137.09"/><rect class="cls-20" x="168.33" y="219.06" width="30.11" height="10.25"/><rect class="cls-20" x="201.08" y="219.06" width="30.11" height="10.25"/><line class="cls-20" x1="179.44" y1="161.69" x2="231.19" y2="161.69"/><rect class="cls-20" x="179.44" y="161.19" width="51.74" height="1"/><path class="cls-20" d="M174,161.69a2.85,2.85,0,1,1-2.85-2.84A2.86,2.86,0,0,1,174,161.69Z"/><line class="cls-20" x1="179.44" y1="174" x2="231.19" y2="174"/><rect class="cls-20" x="179.44" y="173.5" width="51.74" height="1"/><path class="cls-20" d="M174,174a2.85,2.85,0,1,1-2.85-2.84A2.85,2.85,0,0,1,174,174Z"/><line class="cls-20" x1="179.44" y1="186.31" x2="231.19" y2="186.31"/><rect class="cls-20" x="179.44" y="185.81" width="51.74" height="1"/><path class="cls-20" d="M174,186.31a2.85,2.85,0,1,1-2.85-2.85A2.85,2.85,0,0,1,174,186.31Z"/><line class="cls-20" x1="179.44" y1="198.61" x2="231.19" y2="198.61"/><rect class="cls-20" x="179.44" y="198.11" width="51.74" height="1"/><path class="cls-20" d="M174,198.61a2.85,2.85,0,1,1-2.85-2.84A2.85,2.85,0,0,1,174,198.61Z"/><line class="cls-20" x1="169.65" y1="209.55" x2="232.51" y2="209.55"/><rect class="cls-20" x="169.65" y="209.42" width="62.85" height="0.25"/><line class="cls-20" x1="168.33" y1="150.76" x2="231.19" y2="150.76"/><rect class="cls-20" x="168.33" y="150.63" width="62.85" height="0.25"/></g><path class="cls-22" d="M222.5,246.61H177a1,1,0,0,1-1-1.05h0a1,1,0,0,1,1-1.05H222.5a1,1,0,0,1,1.05,1.05h0A1,1,0,0,1,222.5,246.61Z"/><polygon class="cls-23" points="246.58 71.25 152.94 71.25 152.94 212.73 246.58 119.09 246.58 71.25"/><path class="cls-24" d="M238.06,49.19H227.72a1.56,1.56,0,0,0-1.56,1.56,5.91,5.91,0,0,1-5.91,5.91h-41a5.92,5.92,0,0,1-5.92-5.91,1.55,1.55,0,0,0-1.55-1.56H161.46a8.53,8.53,0,0,0-8.52,8.52v130L246.58,94V57.71A8.53,8.53,0,0,0,238.06,49.19Z"/><path class="cls-14" d="M57.55,249.59c0,1.18-3.44,3.81-2.39,8.23a1.25,1.25,0,0,0,1.21.93H71.85a1.19,1.19,0,0,0,1-1.89,4.69,4.69,0,0,0-2.13-1.45c-3.13-1.2-5.44-5.82-5.44-5.82Z"/><path class="cls-25" d="M55.83,191.27c2.86,7.45,10.46,25.41,10.46,29.09,0,10.5-1,29.23-1,29.23s-1.47,2.91-7.74,0c0,0-.39-5.21-.95-13.86s1.52-11.08,1.14-13.68-17.28-18.59-17.28-18.59l9.19-16.15Z"/><path class="cls-26" d="M61.25,221.48C60.37,218,52.69,208,48.46,201.53l-5.35-2.72-2.65,4.65s16.9,16,17.28,18.59-1.71,5-1.14,13.68.95,13.86.95,13.86l.87.37C57.27,227.17,62.05,224.64,61.25,221.48Z"/><path class="cls-14" d="M2,247.65a11.3,11.3,0,0,0-2,6.18A1.59,1.59,0,0,0,.5,255L3,257.4a4.89,4.89,0,0,0,3.37,1.35H14A1.29,1.29,0,0,0,15.26,257a6.49,6.49,0,0,0-1.76-2.46c-2.28-2-1.93-6.89-1.93-6.89Z"/><path class="cls-27" d="M31.14,180.16c-11.68,18.91-6.05,27.1-13.65,37.2S10,221.7,2,247.65c0,0,1.69,2.44,9.57,0,0,0,3.95-13.9,10.7-19.09s16.33-21.3,26.19-27c0,0,3.38-1.37,6.19-12.29Z"/><path class="cls-28" d="M111.24,119.36a16.53,16.53,0,0,0-3.5,3.71,2.19,2.19,0,0,0-.37.84l-1.26,6.16c-1.68,1.64-11.66,5.05-15.33,5.83-2.83.61-3.36,1.59-4.89,2.55l-.34,8.4.75-.41c10.38-5.59,17.33-11.76,21.33-13.89s1.91-7.31,2.08-8.09c.13-.61,1.4-3.53,1.93-4.74A.29.29,0,0,0,111.24,119.36Z"/><path class="cls-29" d="M84.17,139.3C81,140.49,69,142.74,66.11,145.67c-2.38,2.39-1.55,8.43,3.57,8.5s6.21-2,15.87-7.32l.34-8.4A9.17,9.17,0,0,1,84.17,139.3Z"/><path class="cls-30" d="M77.18,143.69l-5.26,4.64s-8-6.41-7.45-6.33S72,135.12,72,135.12Z"/><path class="cls-31" d="M72.11,135.37h-.4c-1.24,1.22-6.79,6.7-7.24,6.63-.3-.05,2.23,2.06,4.42,3.86,3.09-1.84,1-5.5,1.92-5s1.22.19,1.8.81.06,3.82,1.55,4.63l3-2.66Z"/><path class="cls-14" d="M75.71,133.25a3.28,3.28,0,0,0,1.44-2.09,2.24,2.24,0,0,0-1-2.25,1.82,1.82,0,0,0-2.36.42c-.1-.6-.83-.91-1.46-1a3.49,3.49,0,0,0-1.8.47,8.46,8.46,0,0,1-1.72.75,9.92,9.92,0,0,1-1.54.15,3.06,3.06,0,0,0-1.47.42,1.25,1.25,0,0,0-.59,1.29c.15.58.8.9,1.11,1.42a3.55,3.55,0,0,0-2.7,1.22,3.21,3.21,0,0,0-.78,2.74A9.36,9.36,0,0,0,64,139.34a3.3,3.3,0,0,1,.43,2.66c-.17-.22-.74,0-.76.3a.59.59,0,0,0,.52.55,1.65,1.65,0,0,0,.82-.13,2.14,2.14,0,0,1,.82-.16c.59.06,1,.62,1.47.91a1.7,1.7,0,0,0,1.41.12,1.65,1.65,0,0,0,1-1,4.64,4.64,0,0,0,.09-1.58,1.57,1.57,0,0,1,.63-1.39,1.53,1.53,0,0,1,1.21,0c.4.12.77.31,1.18.4a2.82,2.82,0,0,0,2.66-1,4.09,4.09,0,0,0,.83-2.75A10.51,10.51,0,0,0,75.71,133.25Z"/><path class="cls-32" d="M72.87,138.55a1.4,1.4,0,0,0-2.68.11,1.63,1.63,0,0,0,.21,1.14,3.05,3.05,0,0,0,.79.89,1.84,1.84,0,0,0,.84.41.72.72,0,0,0,.77-.42,7.7,7.7,0,0,0,1.48,2.77c1,1.07,3.85,1.78,4.72,1.16s.59-7.28-3.12-12.58a2.12,2.12,0,0,0-2,.81c-.61,1,1.78,1.39,1.52,2.5s-1.69.79-1.22,3.12a.64.64,0,0,1-.51.77l-.5.1Z"/><path class="cls-33" d="M70.81,167.55c6.77-8.4,5.7-14.37,1.11-19.22s-6.77-8-12.93-3.7-19.54,21.46-27.85,35.53c0,0,5.58,11.19,27.85,11.19,0,0,.45-8.87,3-12.83S68.3,170.67,70.81,167.55Z"/><path class="cls-34" d="M68,144.35c-.87,1.89-1.38,6.8-2.61,8-1.54,1.54.88,8.27-5.33,15.78-5.8,7-6.52,8.32-9.57,22.57a55.51,55.51,0,0,0,8.5.62s.45-8.87,3-12.83,6.33-7.85,8.84-11c6.77-8.4,5.7-14.37,1.11-19.22A51.58,51.58,0,0,0,68,144.35Z"/><path class="cls-35" d="M64.8,148.32c-6.32.39-8.5,10.25-1.73,13,5.63,2.3,15,3.57,23.75,3l1.06-8C80.89,156.58,71.1,147.93,64.8,148.32Z"/><path class="cls-36" d="M112.52,149.36c-1.59,0-4.06.4-4.06.4a1.07,1.07,0,0,0-.95.86l-1.07,5.6c-5.65,1.79-11-.13-18.47.17h-.09l-1.06,8c1.77-.11,3.52-.29,5.21-.56a76.37,76.37,0,0,0,17.12-4.59,2.2,2.2,0,0,0,1.27-2.54L110,155.1a4.2,4.2,0,0,1,2.56-4.91l.8-.33S113.33,149.33,112.52,149.36Z"/><rect class="cls-37" x="112.18" y="219.97" width="48.31" height="48.31" rx="9.11"/><path class="cls-38" d="M140.46,228.14v23.24a8.76,8.76,0,0,1-8.25,8.73V236.87a8.76,8.76,0,0,1,8.25-8.73m.5-.52a9.25,9.25,0,0,0-9.25,9.25v23.76a9.25,9.25,0,0,0,9.25-9.25V227.62Z"/><path class="cls-38" d="M124.55,232.56l20.13,11.62a8.76,8.76,0,0,1,3.44,11.51L128,244.07a8.76,8.76,0,0,1-3.44-11.51m-.19-.69a9.25,9.25,0,0,0,3.38,12.64l20.58,11.87a9.25,9.25,0,0,0-3.39-12.63l-20.57-11.88Z"/><path class="cls-38" d="M144.92,235.75h0a8.78,8.78,0,0,1,7.32,3.95l-20.12,11.63a8.75,8.75,0,0,1-11.69-2.78l20.13-11.62a8.73,8.73,0,0,1,4.36-1.18m0-.5a9.09,9.09,0,0,0-4.61,1.25l-20.58,11.87a9.25,9.25,0,0,0,12.64,3.39l20.57-11.88a9.24,9.24,0,0,0-8-4.63Z"/><path class="cls-39" d="M151.38,220H121.3a9.12,9.12,0,0,0-9.12,9.12v1A9.12,9.12,0,0,1,121.3,221h30.08a9.11,9.11,0,0,1,9.11,9.12v-1A9.11,9.11,0,0,0,151.38,220Z"/><path class="cls-40" d="M233,217.5c-2.7,13.47-1,14.51-1.91,23.49-.67,6.45-3.24,13.36-3.24,18.19h-3.57s-1.29-11.27-1.62-18,1.14-9.67,0-13.85,0-18.18,0-18.18Z"/><path class="cls-31" d="M222.65,209.12s-.39,5-.46,9.88l10.23,1.79c.17-1,.37-2.1.61-3.29Z"/><path class="cls-14" d="M224.31,259.18c.26,5-2.26,5.25-1.76,8.81a.34.34,0,0,0,.34.29h9a.34.34,0,0,0,.32-.43c-.26-.87-.95-2.78-2.2-3.24-1.64-.6-2.11-5.43-2.11-5.43Z"/><path class="cls-41" d="M208.86,209.12c1.27,15.37.16,22.89,1.08,31.87.67,6.45,3.24,13.36,3.24,18.19h3.57s1.29-11.27,1.62-18-1.14-9.67,0-13.85,1.49-18.18,1.49-18.18Z"/><path class="cls-31" d="M208.86,209.12c.23,2.82.38,5.36.48,7.71l10.08,1.73c.32-4.76.44-9.44.44-9.44Z"/><path class="cls-14" d="M216.75,259.18c-.25,5,2.27,5.25,1.76,8.81a.34.34,0,0,1-.34.29h-9a.34.34,0,0,1-.33-.43c.26-.87.95-2.78,2.21-3.24,1.63-.6,2.1-5.43,2.1-5.43Z"/><path class="cls-42" d="M211.67,108.11a1.8,1.8,0,0,1,.43-1.13c.83-1,1.58-1.63,1.92-2s.89-6.49.64-6.85-1.83-.6-2.18,0a49.83,49.83,0,0,0-3.1,4.39,26.16,26.16,0,0,0-1.13,4.74c-.1.71-.36,2-.66,3.64l4,1.39C211.63,110.39,211.66,108.91,211.67,108.11Z"/><path class="cls-43" d="M217.86,141a78.78,78.78,0,0,1-6.32-11.85c-1.07-2.48-.06-11.76.05-17l-4-1.39c-.59,3.15-4.27,16.34-2.9,19.78a82.6,82.6,0,0,1,4.15,11.93c1.74,7,3.33,7.21,5.66,7.27C218.6,149.89,220.8,145.67,217.86,141Z"/><path class="cls-44" d="M218.89,128.39c-.57,3.29-.1,6.36,2.88,7.52l1.34-6.69Z"/><path class="cls-45" d="M220.46,129.18c0,1-.62,1.82-1.33,1.81s-1.28-.85-1.26-1.86.62-1.82,1.33-1.81S220.48,128.17,220.46,129.18Z"/><path class="cls-46" d="M221.07,131.65v8.42s2.5,2.8,7.26,1.57V131.26Z"/><path class="cls-31" d="M221.07,136a5.06,5.06,0,0,1,1.32,5,7.9,7.9,0,0,0,5.94.58V131.26l-7.26.39Z"/><path class="cls-47" d="M218.13,140.24c5.53-2.31,13.28,1.32,18.37,4.37,0,0,.49,9.4-3.85,15.62s-.9,11.68.89,16.89,5.62,13.08-.51,40.38l-28.24-3.93s-.55-17.91,4.26-30.73,5.45-19.18,4.69-23.62A85.61,85.61,0,0,0,210,146.08C209.24,143.86,215.75,141.23,218.13,140.24Z"/><path class="cls-48" d="M236.5,144.61a80.11,80.11,0,0,0-3,12,118.62,118.62,0,0,0-.27,17.56c.31,3,4.38,21.08,4.38,21.08h4s-2.46-19.16-2.46-22.47S242.9,147.87,236.5,144.61Z"/><path class="cls-49" d="M237.61,195.21a8.43,8.43,0,0,0,1,4,2.67,2.67,0,0,1-1.28,2.48c-.58.06-.22,2.09.66,2.09a10.67,10.67,0,0,0,4.58-2.35c.51-.76-.93-6.26-.93-6.26Z"/><path class="cls-14" d="M219.27,124.49a4.88,4.88,0,0,0-.63,2.09,7.55,7.55,0,0,0,.39,2.3c.33,1.23.67,2.45,1,3.67a4.93,4.93,0,0,0,.78,1.82,5.06,5.06,0,0,0,2.88,1.45,3.69,3.69,0,0,0,4.65-1.5,10.27,10.27,0,0,0,2.48-3.77,10,10,0,0,0,0-4.36,6.69,6.69,0,0,0-.92-2.88,4.88,4.88,0,0,0-2.77-1.68,9.47,9.47,0,0,0-2.71-.55A6.69,6.69,0,0,0,219.27,124.49Z"/><path class="cls-50" d="M236.5,144.61c-3.84-2.3-9.19-4.93-13.95-5.09h0c-.15,2.94,5.85,4.62,2.65,8.59-3.49,4.32-3.51,5.62-3.2,7a4.87,4.87,0,0,0,7.74,3c4.24-2.81,5.92-5.19,10.37-4.73C239.78,149.28,238.78,145.78,236.5,144.61Z"/><path class="cls-14" d="M227.06,130.37c.13,1.47-1.42,2.45-2.35,3.59a5,5,0,0,0-.72,5c.76,1.82,2.61,3.19,2.82,5.15a5.75,5.75,0,0,1-1.61,4,13.78,13.78,0,0,0-2.56,3.59,4.93,4.93,0,0,0,1.77,5.79,4.49,4.49,0,0,0,5.88-1c1-1.35,1-3.15,1.88-4.58a4.94,4.94,0,0,1,4.57-2.33c2.94.26,5.15,3.11,8.09,3.37A5.62,5.62,0,0,0,250.4,149a7.49,7.49,0,0,0-1.6-6.87,11.71,11.71,0,0,0-6.28-3.63,19.44,19.44,0,0,1-3.54-.94,3.65,3.65,0,0,1-2.26-2.66c-.18-1.58,1.1-3.31.25-4.65s-2.9-1.06-4.21-1.58c-1.88-.73-2.7-2.49-4.2-3.67-1.22-1-2.71-.8-3.23.91S226.91,128.68,227.06,130.37Z"/></g></g></svg>